<?xml version="1.0" encoding="utf-8"?>
<!-- Generator: Adobe Illustrator 22.1.0, SVG Export Plug-In . SVG Version: 6.00 Build 0)  -->
<svg version="1.1" id="Слой_1" xmlns="http://www.w3.org/2000/svg" xmlns:xlink="http://www.w3.org/1999/xlink" x="0px" y="0px"
	 viewBox="0 0 177.1 168.4" style="enable-background:new 0 0 177.1 168.4;" xml:space="preserve">
<style type="text/css">
	.st0{clip-path:url(#SVGID_2_);fill:none;stroke:#707070;stroke-width:10;}
	.st1{clip-path:url(#SVGID_4_);fill:none;stroke:#707070;stroke-width:10;}
	.st2{enable-background:new    ;}
	.st3{fill:#727272;}
</style>
<g>
	<g>
		<g>
			<defs>
				<rect id="SVGID_1_" x="5.1" y="-10.3" width="167.5" height="63.7"/>
			</defs>
			<clipPath id="SVGID_2_">
				<use xlink:href="#SVGID_1_"  style="overflow:visible;"/>
			</clipPath>
			<polygon class="st0" points="150.4,98 89.3,158 28.2,98 28.2,6.6 150.4,6.6 			"/>
			<polygon class="st0" points="133.1,88.6 89.3,131.6 45.5,88.6 45.5,23 133.1,23 			"/>
		</g>
	</g>
</g>
<g>
	<g>
		<g>
			<defs>
				<rect id="SVGID_3_" x="5.1" y="104.7" width="167.5" height="63.7"/>
			</defs>
			<clipPath id="SVGID_4_">
				<use xlink:href="#SVGID_3_"  style="overflow:visible;"/>
			</clipPath>
			<polygon class="st1" points="150.4,98 89.3,158 28.2,98 28.2,6.6 150.4,6.6 			"/>
			<polygon class="st1" points="133.1,88.6 89.3,131.6 45.5,88.6 45.5,23 133.1,23 			"/>
		</g>
	</g>
</g>
<g class="st2">
	<path class="st3" d="M3.7,61.2h11.1v12.6H27V61.2h11.2v36H27V82.6H14.9v14.6H3.7V61.2z"/>
	<path class="st3" d="M73.9,86.6h-20c0.2,1.6,0.6,2.8,1.3,3.6c1,1.1,2.2,1.7,3.8,1.7c1,0,1.9-0.2,2.8-0.7c0.5-0.3,1.1-0.9,1.7-1.6
		l9.8,0.9c-1.5,2.6-3.3,4.5-5.5,5.6c-2.1,1.1-5.2,1.7-9.2,1.7c-3.5,0-6.2-0.5-8.2-1.5s-3.6-2.5-4.9-4.6c-1.3-2.1-2-4.6-2-7.5
		c0-4.1,1.3-7.4,3.9-9.9s6.2-3.8,10.8-3.8c3.7,0,6.7,0.6,8.8,1.7c2.2,1.1,3.8,2.8,4.9,4.9s1.7,4.9,1.7,8.4v1.1H73.9z M63.7,81.8
		c-0.2-1.9-0.7-3.3-1.6-4.2c-0.8-0.8-2-1.3-3.3-1.3c-1.6,0-2.9,0.6-3.8,1.9c-0.6,0.8-1,2-1.2,3.5L63.7,81.8L63.7,81.8z"/>
	<path class="st3" d="M97.9,87l9.5,1.1c-0.5,2-1.4,3.7-2.6,5.1s-2.7,2.6-4.6,3.4s-4.2,1.2-7.1,1.2c-2.8,0-5.1-0.3-6.9-0.8
		s-3.4-1.3-4.8-2.5S79,92,78.3,90.4c-0.8-1.6-1.1-3.6-1.1-6.2c0-2.7,0.5-4.9,1.4-6.7c0.7-1.3,1.6-2.5,2.8-3.5c1.2-1,2.4-1.8,3.6-2.3
		c1.9-0.8,4.4-1.2,7.5-1.2c4.3,0,7.5,0.8,9.7,2.3s3.8,3.7,4.7,6.7l-9.4,1.3c-0.3-1.1-0.8-2-1.6-2.5c-0.8-0.6-1.8-0.8-3.1-0.8
		c-1.7,0-3,0.6-4,1.8c-1,1.2-1.5,3-1.5,5.4c0,2.1,0.5,3.8,1.5,4.9s2.3,1.7,3.9,1.7c1.3,0,2.4-0.3,3.3-1C96.8,89.4,97.5,88.4,97.9,87
		z"/>
	<path class="st3" d="M141.2,70h-17.4v27.2h-11.1v-36h28.5V70z"/>
	<path class="st3" d="M142.9,61.2H155l5,14.8l4.9-14.8h11.3L164.3,89c-1,2.2-1.8,3.9-2.5,5s-1.8,2-3.2,2.7s-3.4,1.1-5.8,1.1
		c-1.3,0-3.6-0.2-6.8-0.6v-7.4c1.9,0.2,3.3,0.3,4.1,0.3c2.6,0,4.1-1,4.7-2.9L142.9,61.2z"/>
</g>
</svg>
