<?xml version="1.0" encoding="utf-8"?>
<!-- Generator: Adobe Illustrator 18.0.0, SVG Export Plug-In . SVG Version: 6.00 Build 0)  -->
<!DOCTYPE svg PUBLIC "-//W3C//DTD SVG 1.1//EN" "http://www.w3.org/Graphics/SVG/1.1/DTD/svg11.dtd">
<svg version="1.1" id="Capa_1" xmlns="http://www.w3.org/2000/svg" xmlns:xlink="http://www.w3.org/1999/xlink" x="0px" y="0px"
	 viewBox="0 0.8 37.3 35.7" enable-background="new 0 0.8 37.3 35.7" xml:space="preserve">
<g>
	<path fill="#FFFFFF" d="M36.7,16.3l-7.6,7.4l1.8,10.4c0.1,0.8-0.2,1.5-0.8,2c-0.3,0.3-0.8,0.4-1.2,0.4c-0.3,0-0.6-0.1-0.9-0.2
		l-9.4-4.9l-9.4,4.9c-0.7,0.4-1.5,0.3-2.1-0.2c-0.6-0.4-0.9-1.2-0.8-2l1.8-10.4l-7.6-7.4c-0.5-0.5-0.7-1.3-0.5-2.1
		C0.3,13.6,1,13,1.7,12.9l10.5-1.5l4.7-9.5c0.3-0.7,1-1.1,1.8-1.1c0.8,0,1.5,0.4,1.8,1.1l4.7,9.5l10.5,1.5c0.8,0.1,1.4,0.6,1.6,1.4
		C37.4,15,37.2,15.8,36.7,16.3z"/>
</g>
</svg>
