<?xml version="1.0" encoding="utf-8"?>
<!-- Generator: Adobe Illustrator 22.1.0, SVG Export Plug-In . SVG Version: 6.00 Build 0)  -->
<svg version="1.1" id="Capa_1" xmlns="http://www.w3.org/2000/svg" xmlns:xlink="http://www.w3.org/1999/xlink" x="0px" y="0px"
	 viewBox="0 0 37.3 35.7" style="enable-background:new 0 0 37.3 35.7;" xml:space="preserve">
<style type="text/css">
	.st0{fill:#0081CA;}
</style>
<g>
	<path class="st0" d="M36.7,15.5l-7.6,7.4l1.8,10.4c0.1,0.8-0.2,1.5-0.8,2c-0.3,0.3-0.8,0.4-1.2,0.4c-0.3,0-0.6-0.1-0.9-0.2
		l-9.4-4.9l-9.4,4.9c-0.7,0.4-1.5,0.3-2.1-0.2c-0.6-0.4-0.9-1.2-0.8-2l1.8-10.4l-7.6-7.4C0,15-0.2,14.2,0,13.4
		c0.3-0.6,1-1.2,1.7-1.3l10.5-1.5l4.7-9.5c0.3-0.7,1-1.1,1.8-1.1s1.5,0.4,1.8,1.1l4.7,9.5l10.5,1.5c0.8,0.1,1.4,0.6,1.6,1.4
		C37.4,14.2,37.2,15,36.7,15.5z"/>
</g>
</svg>
