<?xml version="1.0" encoding="utf-8"?>
<!-- Generator: Adobe Illustrator 20.1.0, SVG Export Plug-In . SVG Version: 6.00 Build 0)  -->
<svg version="1.1" id="Capa_1" xmlns="http://www.w3.org/2000/svg" xmlns:xlink="http://www.w3.org/1999/xlink" x="0px" y="0px"
	 viewBox="0 0 512 511.7" style="enable-background:new 0 0 512 511.7;" xml:space="preserve">
<style type="text/css">
	.st0{fill:#696969;}
</style>
<g>
	<g>
		<g>
			<path class="st0" d="M465.2,320.4l-0.3-49l47.1-26.4L255.3,109.7L0,247.8l102.4,58.8l0.2,34.9l0,2.8l0.9-0.4
				c-1.1,1.5-1.8,3-1.7,4.5c0.1,17.2,69.4,30.8,155,30.3c85.5-0.4,154.8-14.8,154.7-32c0-1.5-0.8-3-1.9-4.5l0.9,0.4v-2.8l-0.2-35.1
				l44.4-27.6l0.2,43.4c-4.9,2.1-8.3,6.9-8.2,12.5c0,7.4,6,13.3,13.5,13.3c7.5,0,13.4-6.1,13.3-13.4
				C473.5,327.3,470.1,322.5,465.2,320.4z M256.7,366.8c-75.9,0.4-137.5-7.9-137.6-18.6c-0.1-10.6,61.4-19.6,137.4-20
				c75.9-0.4,137.5,7.9,137.5,18.5C394.1,357.3,332.6,366.4,256.7,366.8z M406.8,276.3c-10.3-10.8-47.1-39.3-150.8-38.7
				c-103.9,0.5-140.2,29.4-150.4,40.4l-0.1-10.3c0,0,29.5-44.8,150.4-45.5c120.9-0.7,150.9,43.8,150.9,43.8L406.8,276.3z
				 M449.4,349.2l-5.2,75.9c16.2-25.4,29.7-16,29.7-16l-0.3-60.1C456.1,355.9,449.4,349.2,449.4,349.2z"/>
		</g>
	</g>
</g>
</svg>
