<?xml version="1.0" encoding="utf-8"?>
<!-- Generator: Adobe Illustrator 18.0.0, SVG Export Plug-In . SVG Version: 6.00 Build 0)  -->
<!DOCTYPE svg PUBLIC "-//W3C//DTD SVG 1.1//EN" "http://www.w3.org/Graphics/SVG/1.1/DTD/svg11.dtd">
<svg version="1.1" id="Слой_1" xmlns="http://www.w3.org/2000/svg" xmlns:xlink="http://www.w3.org/1999/xlink" x="0px" y="0px"
	 viewBox="246.6 0 595.3 595.3" enable-background="new 246.6 0 595.3 595.3" xml:space="preserve">
<path fill="#4B8AB5" d="M808,595.3H280.5c-18.6,0-33.9-15.2-33.9-33.9V33.9c0-18.6,15.2-33.9,33.9-33.9h527.6
	C826.7,0,842,15.2,842,33.9v527.6C841.9,580,826.7,595.3,808,595.3z"/>
<path fill="none" stroke="#FFFFFF" stroke-width="21" stroke-miterlimit="10" d="M786.9,552.1H301.6c-6.5,0-11.8-5.4-11.8-11.8V55
	c0-6.5,5.4-11.8,11.8-11.8h485.5c6.5,0,11.8,5.4,11.8,11.8v485.5C798.7,546.8,793.4,552.1,786.9,552.1z"/>
<g display="none">
	<g display="inline">
		<defs>
			<path id="SVGID_1_" d="M808,595.3H280.5c-18.6,0-33.9-15.2-33.9-33.9V33.9c0-18.6,15.2-33.9,33.9-33.9h527.6
				C826.7,0,842,15.2,842,33.9v527.6C841.9,580,826.7,595.3,808,595.3z"/>
		</defs>
		<clipPath id="SVGID_2_">
			<use xlink:href="#SVGID_1_"  overflow="visible"/>
		</clipPath>
		<path clip-path="url(#SVGID_2_)" fill="#D0D0D0" d="M723.2,1442c-15.5-2-74.5-11.6-90.1-16.3c-19.4-19.4-13.9-51.2-12.4-76.4
			c23.9-93.6,23.6-153.2,13.9-231.9c-5.4-46.5,14-107.1,17.8-129.1c3.9-21.9,7.8-110.5-2.7-164.8c-3.5-12.4-5.2-22.4-5.8-39.2
			c-0.6-16.8-1.6-34.9,10.5-47.3c40.7-22.9,43.9-64.2,53.1-104.3c-1.9-58.5,35.7-107.8,16.7-166.7c-6.6-16.7-20.4-25-39.2-33.3
			c-18.8-8.4-75.3-21.7-88.9-59.7c-8.1-54.7,26.9-117.7,2.4-160.9c-12.6-22.3-53.9-26.4-81.8-16.7c-38.4,21.3-32.2,90.4-26.4,109.7
			c5.8,19.4,10.1,40.7,13.2,61.6c0.4,19.8-16.3,31.4-32.6,38c-29.5,16.7-60.5,29.9-89.2,47.3c-21,14.7-14.8,46.5-13.2,69.8
			c20.2,55.8,8.2,125.3,35.3,178c23.7,15.1,41.9,41.5,41.9,70.6c-10.1,91.5-4.3,186.9,20.6,271c6.6,41.9-0.4,87.3-4.7,129.1
			c-2,58.2,15.9,108.2,27.2,160.9c5.4,28.3,7,66.3-8.6,91.5c-46.1,16.3-101.2,10.9-143.4,37.2c-15.1,16.7-1.2,42.6-8.2,63.2
			c-0.4,14.3-17.4,14.7-24.4,24c-9.7,15.5,1.2,32.6,10.5,44.6c6.6,42.6,3.5,123.2,3.5,134.2s2.7,26-8.1,32.6
			c-31,10.9-64,20.5-87.6,45.8c-6.6,13.5-3.9,32.5,4.7,44.6c4.3,11.2-7,18.6-8.1,28.7c-3.1,16.6-4.3,37.2,8.1,49.2
			c22.5,12,45.4,22.9,69.8,29.8c150.4,40.3,290.4,33.8,408.9,19c66.8-8.3,155.6-28.6,184.7-57c7-17.8,0-39.6-8.2-55.8
			c-3.9-17.1,10.5-32.6,5.4-51.2c-5.4-13.6-16.1-19.4-28.7-27.1c-12.6-7.8-45.8-14-63.2-30.6l-3.1-127.5c0.4-22.5-1.9-46.2,9.3-64
			c7.4-25.6-25.6-22.1-34.1-39.2c-8.5-21.7,11.2-34.1,7.4-55.1C773.4,1457.1,760.8,1447,723.2,1442z"/>
	</g>
	<g display="inline">
		<defs>
			<path id="SVGID_3_" d="M808,595.3H280.5c-18.6,0-33.9-15.2-33.9-33.9V33.9c0-18.6,15.2-33.9,33.9-33.9h527.6
				C826.7,0,842,15.2,842,33.9v527.6C841.9,580,826.7,595.3,808,595.3z"/>
		</defs>
		<clipPath id="SVGID_4_">
			<use xlink:href="#SVGID_3_"  overflow="visible"/>
		</clipPath>
		<path clip-path="url(#SVGID_4_)" fill="#FFFFFF" d="M898.6,1859.4c-0.4-3.6,0.9-8.5,2.6-14.1c2.9-9.9,6.6-22.3,2.7-36.8l-0.3-1
			l-0.4-0.9c-7.2-18.1-20.5-26.2-33.4-34.1l-2.4-1.5c-6-3.7-13.9-6.5-22.9-9.8c-10.6-3.8-23.2-8.4-32.2-14.5l-2.9-119.2
			c0.1-3.7,0.1-7.5,0-11.1c-0.1-16.8-0.1-32.7,6.6-43.3l1.3-2.1l0.7-2.4c8.5-29.5-15.3-41-25.5-45.9c-3-1.4-8.2-4-9.5-5.5
			c-1.3-4.3-0.3-7.7,3.1-15.9c3.5-8.6,8.3-20.3,5.6-34.9c-5.1-29-40.8-37-67.1-40.5c-15.5-2-63.5-10-82.4-14.5
			c-8.5-11.8-7.1-31.1-5.6-49.9l0.6-8.3c24.4-96.1,23.7-157.5,14-236.6c-3.8-33,6.3-75,13-102.9c2-8.4,3.8-15.7,4.7-21.2
			c4.4-25,7.9-115.6-2.8-171.1l-0.1-0.7l-0.2-0.7c-2.9-10.2-4.6-18.8-5.2-35.1v-0.8c-0.5-13.1-0.9-25.4,4.7-32.5
			c39.5-24,47.9-63.4,55.2-98.3c1.1-5.1,2.2-10.3,3.3-15.4l0.5-2.2l-0.1-2.3c-0.7-21.8,4.8-42.5,10.6-64.4
			c8.8-33.3,17.9-67.7,5.2-107.1l-0.2-0.5l-0.2-0.5c-9.5-23.8-29.9-34.6-48.2-42.9c-4-1.8-8.9-3.5-14.5-5.6
			c-20.8-7.6-55.2-20.1-64.5-42.6c-2.6-20.1,1.4-42.8,5.3-64.9c6.1-34.4,12.3-69.9-4.7-100.1c-17-30.1-66.9-37-102.7-24.6l-1.4,0.5
			l-1.3,0.7c-48.1,26.8-42.2,104.6-34.6,130c4.9,16.5,9.1,35.9,12.4,57.7c-0.2,8.1-7.5,15.1-21.6,20.8l-1.1,0.5l-1,0.5
			c-12.6,7.1-25.9,13.8-38.7,20.2c-16.9,8.5-34.3,17.2-51,27.3l-0.5,0.3l-0.5,0.3c-26.4,18.6-23.4,51.8-21.3,76
			c0.3,3.2,0.5,6.3,0.8,9.2l0.2,2.4l0.8,2.3c8.3,23.1,10.7,49.1,13.2,76.7c3.2,35.1,6.5,71.3,22.9,103.3l2.2,4.2l4,2.5
			c20.7,13.3,33.6,34.5,33.8,55.5c-10.5,97-3.3,191.9,20.9,274.7c5.1,33.1,1.1,69.5-2.8,104.8l-2.1,19.2v0.6v0.6
			c-1.6,46,8.6,86.9,18.4,126.5c3.2,12.6,6.4,25.7,9.1,38.3c5.7,29.6,4.3,56.5-3.5,73.7c-15.4,4.7-32.1,7.3-49.6,10
			c-30.8,4.6-62.7,9.4-90.9,27l-2.1,1.3l-1.6,1.8c-13.8,15.3-12.4,33.8-11.2,48.6c0.6,8,1.2,15.4-0.6,20.7c0,0-0.8,2.3-0.8,2.7v1
			c-1.1,0.8-3,1.8-4.3,2.5c-5.2,2.9-11.7,6.4-16.7,13l-0.5,0.6l-0.4,0.6c-15.3,24.4,0,49.1,8.6,60.7c4.7,35.4,3.4,94.6,2.9,117.5
			c-0.1,4.8-0.2,7.9-0.2,9.8c0,2.1,0.1,4.2,0.2,6.3c0.1,3.1,0.3,8.5-0.3,11.1l-4.6,1.6c-29,10-61.8,21.3-86.3,47.4l-1.8,1.9
			l-1.2,2.4c-8.4,17.3-6.8,40.3,3.4,57.8c-0.5,1-1.2,2.3-1.8,3.3c-2.5,4.3-5.9,10.2-6.7,17.8l0.2-1.2c-2,10.9-8.2,44.2,13.1,65
			l1.8,1.7l2.2,1.1c19.3,10.3,45.1,23.2,73.5,31.3c160.8,43.1,306.6,33.1,415.6,19.5c25.1-3.1,152.7-20.8,194.7-61.8l2.7-2.6
			l1.4-3.5C913.3,1907.9,910.7,1884.8,898.6,1859.4z"/>
	</g>
	<g display="inline">
		<defs>
			<path id="SVGID_5_" d="M808,595.3H280.5c-18.6,0-33.9-15.2-33.9-33.9V33.9c0-18.6,15.2-33.9,33.9-33.9h527.6
				C826.7,0,842,15.2,842,33.9v527.6C841.9,580,826.7,595.3,808,595.3z"/>
		</defs>
		<clipPath id="SVGID_6_">
			<use xlink:href="#SVGID_5_"  overflow="visible"/>
		</clipPath>
		<path clip-path="url(#SVGID_6_)" fill="#FFFFFF" d="M555.6,318.4c1.2,3.9-3.1,1.9-4.7,3.5l-5.4-0.7
			C548.2,318.4,551.7,318,555.6,318.4z"/>
	</g>
	<g display="inline">
		<defs>
			<path id="SVGID_7_" d="M808,595.3H280.5c-18.6,0-33.9-15.2-33.9-33.9V33.9c0-18.6,15.2-33.9,33.9-33.9h527.6
				C826.7,0,842,15.2,842,33.9v527.6C841.9,580,826.7,595.3,808,595.3z"/>
		</defs>
		<clipPath id="SVGID_8_">
			<use xlink:href="#SVGID_7_"  overflow="visible"/>
		</clipPath>
		<path clip-path="url(#SVGID_8_)" fill="#FFFFFF" d="M516.8,598.3c-2,0.4-3.9,3.5-5.8,1.2c-2-5,0-10.5,2-15.1
			C516.8,587.1,516.8,592.9,516.8,598.3z"/>
	</g>
	<g display="inline">
		<defs>
			<path id="SVGID_9_" d="M808,595.3H280.5c-18.6,0-33.9-15.2-33.9-33.9V33.9c0-18.6,15.2-33.9,33.9-33.9h527.6
				C826.7,0,842,15.2,842,33.9v527.6C841.9,580,826.7,595.3,808,595.3z"/>
		</defs>
		<clipPath id="SVGID_10_">
			<use xlink:href="#SVGID_9_"  overflow="visible"/>
		</clipPath>
		<g clip-path="url(#SVGID_10_)">
			<path fill="#FFFFFF" d="M564.9,208.7c5.8,20.6,3.1,45-8.1,62c0,10.1-0.8,22.9,0.8,33.7c12.4-2,7-17.1,9.3-24.4
				c1.9-3.1,3.5-4.7,6.6-6.2c5.4-1.2,10.9,1.2,12,6.2c-9.3,16.3-0.8,36.1-7.4,53.1c-1.9,5.4-8.9,7.4-13.2,3.9
				c-3.9-7.7-13.6-8.5-21.3-6.6c-7.7,7-7.7,19-10.1,28.7c3.5,11.6,17.1,13.6,19.4,26.4c-3.1,18.6,3.5,39.5-5.4,54.7
				c-10.9,14-36.5,16.3-34.5,37.2c3.1,11.6,4.3,24.1,13.2,33.7c0.4,15.9-18.2,21-27.1,31.4c-18.2,11.2-26.8,25.6-45.8,37.2
				c-7,1.9-12-2.3-14-8.2c-0.4-9.3,3.9-17.8,12.4-21.7c7-3.9,17.5-2.3,21.3-12c-7.4-8.1-20.6-6.6-29.9-12
				c-5.4-3.5-11.2-8.5-16.7-10.1c-22.9,37.2,25.6,74.9-5.8,109.7c-0.8,2.3,1.5,3.9,3.1,5.4c7-0.8,12,3.9,14,10.5
				c-3.1,18.6,3.5,34.9,15.5,46.5c18.2,22.1,47.3,11.6,73.7,15.5c5.4,2.3,10.5,8.2,11.2,14c-4.3,27.9,5.4,63.6-8.5,88.4
				c-4.7,2.7-10.4,7.3-15.9,1.9c-13.2-19.8-28.3-34.9-43.4-51.9c-2.7-6.2-3.5-16.3,0.8-21.3c3.1-3.1,13.2-8.5,5.4-14
				c-12.8-3.9-23.3-17.4-32.6-26.4c-10.1-1.1-25.6,4.3-33.3-5.4c-17.1-22.5-17.1-51.5-21.3-79.1c-5.8-27.5,13.2-62-11.3-85.7
				c-7.7-20.2-10.1-48.5,5.4-65.9c21.3-17.8,48.9-24,73.7-34.5c20.2-6.6,41.5-35.7,63.2-14c4.7,5.4,7.4,18.2,16.7,14.7
				c8.1-13.2-9.3-23.3-14.7-34.1c-13.2-36.4,19-70.2-4.7-101.6c-2-7,2.7-12.8,8.5-14.7c3.1,1.2,4.3-2.3,6.2-3.9
				c-4.7-10.9-20.2-5.4-27.9-12c-9.3-12.8-6.2-30.3,1.1-43c11.3-15.1,29.9-12.4,45.4-16.7C559.8,194.3,561.4,204.8,564.9,208.7z"/>
			<path fill="#FFFFFF" d="M512.1,323.1c-1.2,2.3-2,2.3-3.9,4.7c-8.2-8.1-15.1-20.2-12-34.5c2-4.7,5.8-1.9,8.2,0
				C509.8,302.1,513.7,311.4,512.1,323.1z"/>
			<path fill="#FFFFFF" d="M582.7,375c-0.8,3.9-1.2,7.4-5.4,8.5c-5-2.7-6.6-8.9-5.8-15.1C576.1,362.2,582.7,369.6,582.7,375z"/>
			<path fill="#FFFFFF" d="M689.7,446.7c19,7.4,19.4,27.1,26,41.9c10.1,38.4-32.2,55.1-27.9,91.1c2.3,16.3,3.9,33.7,1.9,50.4
				c-3.5,3.5-7.4,7.8-13.2,5.4c-7-4.7-11.2-12.4-14-20.5c1.2-31.8,12.4-60.1,12.4-93.1l-1.9-1.5c-20.6,17.4-55.8,19-80.2,8.1
				c-18.6-8.1-6.6-33.7-10.1-49.2c6.2-18.2,29.8-26.7,27.9-48.5c5.4-6.2,13.2-3.9,19.4-1.9C648.6,438.2,670.3,439.8,689.7,446.7z"/>
			<path fill="#FFFFFF" d="M558.7,547.2c7.4,10.1,9.3,24.8,5.4,37.2c-7.4,8.5-25.6-5.4-28.7,11.3c1.9,9.7-3.1,15.9-6.6,23.3
				c-10.5,13.2-24.8-3.1-37.2,3.9c-12,4.3-14,22.1-27.9,21.3c-10.5-9.7,3.1-22.1,6.6-30.6c-4.3-12.4-8.5-26.8,0-38.4
				c20.2-18.6,43.8-44.2,77.2-35.3L558.7,547.2z"/>
		</g>
	</g>
	<g display="inline">
		<defs>
			<path id="SVGID_11_" d="M808,595.3H280.5c-18.6,0-33.9-15.2-33.9-33.9V33.9c0-18.6,15.2-33.9,33.9-33.9h527.6
				C826.7,0,842,15.2,842,33.9v527.6C841.9,580,826.7,595.3,808,595.3z"/>
		</defs>
		<clipPath id="SVGID_12_">
			<use xlink:href="#SVGID_11_"  overflow="visible"/>
		</clipPath>
		<path clip-path="url(#SVGID_12_)" fill="#545454" d="M722.4,1441c-15.5-2-74.5-11.6-90.1-16.3c-19.4-19.4-14-51.2-12.4-76.4
			c23.9-93.6,23.6-153.2,14-231.9c-5.4-46.5,14-107.1,17.8-129.1c3.9-22,7.8-110.5-2.7-164.8c-3.5-12.4-5.2-22.4-5.8-39.2
			c-0.6-16.8-1.6-34.9,10.5-47.3c40.7-22.9,43.9-64.2,53.1-104.3c-1.9-58.5,35.7-107.8,16.7-166.7c-6.6-16.7-20.4-25-39.2-33.3
			c-18.7-8.4-75.3-21.7-88.9-59.7c-8.1-54.7,26.9-117.7,2.4-160.9c-12.6-22.3-53.9-26.4-81.8-16.7c-38.4,21.3-32.2,90.4-26.4,109.7
			c5.8,19.4,10.1,40.7,13.2,61.6c0.4,19.8-16.3,31.4-32.6,38c-29.5,16.7-60.5,29.9-89.2,47.3c-21,14.7-14.8,46.5-13.2,69.8
			c20.2,55.8,8.2,125.3,35.3,178c23.7,15.1,41.9,41.5,41.9,70.6c-10.1,91.5-4.3,186.9,20.6,271c6.6,41.9-0.4,87.3-4.7,129.1
			c-2,58.2,15.9,108.2,27.2,160.9c5.4,28.3,7,66.3-8.5,91.5c-46.1,16.3-101.2,10.9-143.4,37.2c-15.1,16.7-1.2,42.7-8.2,63.2
			c-0.4,14.4-17.4,14.7-24.4,24c-9.7,15.5,1.2,32.6,10.5,44.6c6.6,42.7,3.5,123.2,3.5,134.2s2.7,25.9-8.1,32.6
			c-31,10.9-64,20.6-87.6,45.8c-6.6,13.5-3.9,32.6,4.7,44.6c4.3,11.2-7,18.6-8.1,28.7c-3.1,16.6-4.3,37.2,8.1,49.2
			c22.5,12,45.4,22.9,69.8,29.8c150.4,40.3,290.4,33.8,408.9,19c66.8-8.3,155.6-28.6,184.7-57c7-17.8,0-39.5-8.2-55.8
			c-3.9-17.1,10.5-32.6,5.4-51.2c-5.4-13.6-16.1-19.4-28.7-27.1c-12.6-7.8-45.8-14-63.2-30.6l-3.1-127.6c0.4-22.5-1.9-46.2,9.3-64
			c7.4-25.6-25.6-22.1-34.1-39.2c-8.5-21.7,11.2-34.1,7.3-55.1C772.7,1456.1,760,1445.9,722.4,1441z"/>
	</g>
	<g display="inline">
		<defs>
			<path id="SVGID_13_" d="M808,595.3H280.5c-18.6,0-33.9-15.2-33.9-33.9V33.9c0-18.6,15.2-33.9,33.9-33.9h527.6
				C826.7,0,842,15.2,842,33.9v527.6C841.9,580,826.7,595.3,808,595.3z"/>
		</defs>
		<clipPath id="SVGID_14_">
			<use xlink:href="#SVGID_13_"  overflow="visible"/>
		</clipPath>
		<path clip-path="url(#SVGID_14_)" fill="#FFFFFF" d="M554.8,317.4c1.2,3.9-3.1,1.9-4.7,3.5l-5.4-0.7
			C547.4,317.4,550.9,317,554.8,317.4z"/>
	</g>
	<g display="inline">
		<defs>
			<path id="SVGID_15_" d="M808,595.3H280.5c-18.6,0-33.9-15.2-33.9-33.9V33.9c0-18.6,15.2-33.9,33.9-33.9h527.6
				C826.7,0,842,15.2,842,33.9v527.6C841.9,580,826.7,595.3,808,595.3z"/>
		</defs>
		<clipPath id="SVGID_16_">
			<use xlink:href="#SVGID_15_"  overflow="visible"/>
		</clipPath>
		<path clip-path="url(#SVGID_16_)" fill="#FFFFFF" d="M516,597.3c-1.9,0.4-3.9,3.5-5.8,1.2c-2-5,0-10.5,1.9-15.1
			C516,586.1,516,591.9,516,597.3z"/>
	</g>
	<g display="inline">
		<defs>
			<path id="SVGID_17_" d="M808,595.3H280.5c-18.6,0-33.9-15.2-33.9-33.9V33.9c0-18.6,15.2-33.9,33.9-33.9h527.6
				C826.7,0,842,15.2,842,33.9v527.6C841.9,580,826.7,595.3,808,595.3z"/>
		</defs>
		<clipPath id="SVGID_18_">
			<use xlink:href="#SVGID_17_"  overflow="visible"/>
		</clipPath>
		<g clip-path="url(#SVGID_18_)">
			<path fill="#FFFFFF" d="M564.1,207.6c5.8,20.6,3.1,45-8.1,62c0,10.1-0.8,22.9,0.8,33.7c12.4-2,7-17.1,9.3-24.4
				c1.9-3.1,3.5-4.6,6.6-6.2c5.4-1.2,10.9,1.2,12,6.2c-9.3,16.3-0.8,36.1-7.4,53.1c-1.9,5.4-8.9,7.4-13.2,3.9
				c-3.9-7.7-13.6-8.5-21.3-6.6c-7.7,7-7.7,19-10.1,28.7c3.5,11.6,17.1,13.6,19.4,26.4c-3.1,18.6,3.5,39.5-5.4,54.7
				c-10.9,14-36.5,16.3-34.5,37.2c3.1,11.6,4.3,24.1,13.2,33.7c0.4,15.9-18.2,21-27.1,31.4c-18.2,11.2-26.8,25.6-45.8,37.2
				c-7,1.9-12-2.3-14-8.2c-0.4-9.3,3.9-17.8,12.4-21.7c7-3.9,17.5-2.3,21.3-12c-7.4-8.1-20.6-6.6-29.9-12
				c-5.4-3.5-11.2-8.5-16.7-10.1c-22.9,37.2,25.6,74.8-5.8,109.7c-0.8,2.4,1.5,3.9,3.1,5.4c7-0.8,12,3.9,14,10.5
				c-3.1,18.6,3.5,34.9,15.5,46.5c18.2,22.1,47.3,11.6,73.7,15.5c5.4,2.3,10.5,8.2,11.3,14c-4.3,27.9,5.4,63.6-8.5,88.4
				c-4.7,2.7-10.5,7.4-15.9,1.9c-13.2-19.8-28.3-34.9-43.4-51.9c-2.7-6.2-3.5-16.3,0.8-21.3c3.1-3.1,13.2-8.5,5.4-14
				c-12.8-3.9-23.3-17.4-32.6-26.4c-10.1-1.1-25.6,4.3-33.3-5.4c-17.1-22.5-17.1-51.5-21.3-79.1c-5.8-27.5,13.2-62-11.3-85.7
				c-7.7-20.2-10.1-48.5,5.4-65.9c21.3-17.8,48.9-24,73.7-34.5c20.2-6.6,41.5-35.7,63.2-14c4.7,5.4,7.4,18.2,16.7,14.7
				c8.1-13.2-9.3-23.3-14.7-34.1c-13.2-36.4,19-70.2-4.7-101.6c-1.9-7,2.7-12.8,8.5-14.7c3.1,1.2,4.3-2.3,6.2-3.9
				c-4.7-10.9-20.2-5.4-27.9-12c-9.3-12.8-6.2-30.3,1.2-43c11.2-15.1,29.9-12.4,45.4-16.7C559,193.3,560.6,203.8,564.1,207.6z"/>
			<path fill="#FFFFFF" d="M511.4,322c-1.2,2.3-1.9,2.3-3.9,4.7c-8.2-8.1-15.1-20.2-12-34.5c1.9-4.7,5.8-1.9,8.2,0
				C509,301.1,512.9,310.4,511.4,322z"/>
			<path fill="#FFFFFF" d="M582,374c-0.8,3.9-1.2,7.4-5.4,8.5c-5.1-2.7-6.6-8.9-5.8-15.1C575.3,361.2,582,368.6,582,374z"/>
			<path fill="#FFFFFF" d="M689,445.7c19,7.4,19.4,27.1,25.9,41.9c10.1,38.4-32.2,55.1-27.9,91.1c2.3,16.3,3.9,33.7,2,50.4
				c-3.5,3.5-7.4,7.8-13.2,5.4c-7-4.7-11.2-12.4-14-20.5c1.2-31.8,12.4-60.1,12.4-93.1l-1.9-1.5c-20.6,17.4-55.8,19-80.3,8.1
				c-18.6-8.1-6.6-33.7-10.1-49.2c6.2-18.2,29.8-26.7,27.9-48.5c5.4-6.2,13.2-3.9,19.4-1.9C647.8,437.2,669.6,438.7,689,445.7z"/>
			<path fill="#FFFFFF" d="M557.9,546.1c7.3,10.1,9.3,24.8,5.4,37.2c-7.4,8.5-25.6-5.4-28.7,11.3c2,9.7-3.1,15.9-6.6,23.3
				c-10.5,13.2-24.8-3.1-37.2,3.9c-12,4.3-14,22.1-27.9,21.3c-10.5-9.7,3.1-22.1,6.6-30.6c-4.3-12.4-8.5-26.8,0-38.4
				c20.2-18.6,43.8-44.2,77.2-35.3L557.9,546.1z"/>
		</g>
	</g>
</g>
<g id="Слой_2">
</g>
<path fill="#FFFFFF" d="M545.6,396l120.1,72.3l-31.8-136.5l105.9-91.8l-139.7-12L545.6,99.4l-54.5,128.7l-139.7,12l105.9,91.8
	l-31.8,136.5L545.6,396z M545.6,396"/>
</svg>
