<?xml version="1.0" encoding="utf-8"?>
<!-- Generator: Adobe Illustrator 18.0.0, SVG Export Plug-In . SVG Version: 6.00 Build 0)  -->
<!DOCTYPE svg PUBLIC "-//W3C//DTD SVG 1.1//EN" "http://www.w3.org/Graphics/SVG/1.1/DTD/svg11.dtd">
<svg version="1.1" id="Слой_1" xmlns="http://www.w3.org/2000/svg" xmlns:xlink="http://www.w3.org/1999/xlink" x="0px" y="0px"
	 viewBox="123.3 123.3 595.4 595.3" enable-background="new 123.3 123.3 595.4 595.3" xml:space="preserve">
<path fill="#FFA300" d="M684.7,718.6H157.2c-18.7,0-33.9-15.2-33.9-33.9V157.2c0-18.6,15.2-33.9,33.9-33.9h527.6
	c18.6,0,33.9,15.2,33.9,33.9v527.6C718.6,703.4,703.3,718.6,684.7,718.6z"/>
<path fill="none" stroke="#FFFFFF" stroke-width="7" stroke-miterlimit="10" d="M663.6,675.4H178.3c-6.5,0-11.8-5.4-11.8-11.8V178.3
	c0-6.5,5.4-11.8,11.8-11.8h485.5c6.5,0,11.8,5.4,11.8,11.8v485.5C675.4,670.1,670.1,675.4,663.6,675.4z"/>
<g>
	<path fill="#FFFFFF" d="M603.9,214.2v418.6H497.3v-337H340v337H234.3V214.2H603.9z"/>
</g>
</svg>
