<?xml version="1.0" encoding="utf-8"?>
<!-- Generator: Adobe Illustrator 18.0.0, SVG Export Plug-In . SVG Version: 6.00 Build 0)  -->
<!DOCTYPE svg PUBLIC "-//W3C//DTD SVG 1.1//EN" "http://www.w3.org/Graphics/SVG/1.1/DTD/svg11.dtd">
<svg version="1.1" id="Слой_1" xmlns="http://www.w3.org/2000/svg" xmlns:xlink="http://www.w3.org/1999/xlink" x="0px" y="0px"
	 viewBox="0 123.3 595.3 595.3" enable-background="new 0 123.3 595.3 595.3" xml:space="preserve">
<path fill="#46C978" d="M561.4,718.6H33.9C15.2,718.6,0,703.4,0,684.7V157.2c0-18.6,15.2-33.9,33.9-33.9h527.6
	c18.6,0,33.9,15.2,33.9,33.9v527.6C595.3,703.4,580,718.6,561.4,718.6z"/>
<path fill="none" stroke="#FFFFFF" stroke-width="7" stroke-miterlimit="10" d="M540.3,675.4H55c-6.5,0-11.8-5.4-11.8-11.8V178.3
	c0-6.5,5.4-11.8,11.8-11.8h485.5c6.5,0,11.8,5.4,11.8,11.8v485.5C552.1,670.1,546.8,675.4,540.3,675.4z"/>
<g>
	<path fill="#FFFFFF" d="M477.9,488.1l0.6,1.7c0.8,44-14.4,78.7-46,104.4s-75.3,38.7-131.2,38.7c-56.1,0-101.8-15.8-136.8-47.4
		S112,513.2,112,463.5v-81c0-49.4,17.2-90,51.3-121.9c34.1-31.6,78.7-47.4,133.2-47.4c57.6,0,102.7,13,135.1,38.7
		c32.4,26,48.2,61.2,47.4,105.8l-0.6,1.7h-91.1c0-26.8-7.3-47.4-22-61.8c-14.7-14.4-37.8-21.4-68.8-21.4c-27.9,0-50.2,9.9-66.6,29.9
		c-16.4,19.7-24.5,45.1-24.5,75.9v81.5c0,31,8.7,56.7,26,76.5c17.2,19.7,40.6,29.9,70.2,29.9c29.3,0,50.8-6.8,64.9-20.6
		c14.1-13.8,20.9-34.1,20.9-61.2H477.9z"/>
</g>
</svg>
